<?xml version="1.0" encoding="utf-8"?>
<!-- Svg Vector Icons : http://www.onlinewebfonts.com/icon -->
<!DOCTYPE svg PUBLIC "-//W3C//DTD SVG 1.1//EN" "http://www.w3.org/Graphics/SVG/1.1/DTD/svg11.dtd">
<svg version="1.1" xmlns="http://www.w3.org/2000/svg" xmlns:xlink="http://www.w3.org/1999/xlink" x="0px" y="0px" viewBox="0 0 1000 1000" enable-background="new 0 0 1000 1000" xml:space="preserve">
<metadata> Svg Vector Icons : http://www.onlinewebfonts.com/icon </metadata>
<g><path d="M927,886.4c-7.6,0-15.3,0.7-22.8-0.1c-27.6-3-47.7,28.4-57.3,61.4c-8.6,29.8-41.3,45-70.8,41.9c-34-3.5-56.5-22.9-65.2-53.7c-5.2-18.6-21-33-38.3-32.9c-119.7,0.7-226.2,0.3-345.8,0c-13.8,0-28.5,13.2-32.5,29.4c-8.6,34.8-38.2,56.9-71,57.5c-33.9,0.6-63.4-21-73.3-57.1c-4.2-15.1-11.2-47.5-25.6-46.7c-18.6,1-37.4,0.5-56,0.2c-20.4-0.4-29.4-8.6-29.4-27.9c0.1-196.9,0.4-393.8,1-590.8c0.1-20.3,8.5-27.2,32-27.2c96.2-0.1,192.3-0.1,288.5-0.1c6.7,0,13.4,0,20.1,0c0.6-1.6,1.2-3.3,1.8-5c-22.3-11.7-44.7-23.5-67-35.2c-37-19.5-74.1-39-111.1-58.6c-15-8-21.2-20.1-12.7-35.1c8.6-15.2,22.7-16.1,37.5-8.4c86.8,45.8,173.7,91.5,260.2,137.8c22.2,11.9,62.1,4.8,76.3-15.3c44.2-62.4,88.4-124.7,132.7-187.1c1.6-2.2,3.1-4.5,4.7-6.6c12.6-16.9,26.9-21.5,40-11.5c15.1,11.6,12.5,25.3,2.8,39c-18,25.4-35.9,50.9-53.8,76.3c-24.8,35.3-49.7,70.6-77.2,109.8c11.3,0,18.5,0,25.8,0c95.5,0,191,0,286.5,0c29.2,0,33.7,4.4,33.7,32.8c0.3,193.6,0.5,387.1,0.7,580.7C961.2,881.5,956.1,886.2,927,886.4z M783.4,944.3c15.3-1,22.5-41.5,27.2-56.8c-19.9,0-37.4,0-57.8,0C758.5,904.3,766.4,945.4,783.4,944.3z M220.6,944.3c16.9,1,24.9-39.9,29.9-56.7c-20,0-37.5,0-56.9,0C197.5,903.5,205.5,943.4,220.6,944.3z M903.1,297.8c-276.3,0-532.3,0-807,0c0,186.2,0,362.4,0,547.6c276.1,0,530.9,0,807,0C903.1,658.9,903.1,483.2,903.1,297.8z M153.8,409.7c0.1-26.7,12.9-52.8,39.8-52.8c205,0,393.7-1.5,598.7-1.4c27.3,0,53.1,27.8,53.2,54.2c0.3,127.3-0.2,225.3,0,352.6c0.1,27.2-24.6,54.2-53.2,54.2c-102.2,0.1-190.5,0-292.6,0c-102.2,0-190.4,0.1-292.6,0c-29.7,0-53.2-24.9-53.2-54.2C153.9,635.6,153.6,536.4,153.8,409.7z M796.4,758.4c0-120.4-4.1-230.8-4.1-348.7c-197.8,0-389.2,0-585.3,0c0,119.7-0.7,230.1-0.7,348.7C403.7,758.4,599.4,758.4,796.4,758.4z M373,479.9c1.7-0.8,3.7-0.6,10.7-1.6c4.1,4,14.3,9.5,15.4,16.3c1.2,8-3.1,22-9.3,25.1c-37.9,19.2-76.8,36.5-115.8,53.5c-11.9,5.2-24.9,1.3-28-11.4c-2-8.3,1.6-24.1,7.6-27.1C292.8,515,333.1,497.8,373,479.9z M385,608.4c7.4-0.3,16.9,9.9,22.2,17.7c4.3,6.2,2.5,16.1,5.5,23.6c5.7,14.3,16.4,27.8,32.2,24.5c11.7-2.5,22.3-14.1,31.1-23.8c4.3-4.8,3.6-14.2,4.6-21.6c2-13.9,10.2-22.5,24-22.2c12.6,0.3,20.8,7.9,22.4,21.6c1,8.6,1.3,19.3,6.4,25c8.2,9.2,20.1,20.2,30.8,20.6c9.6,0.3,21.3-11.3,28.9-20.3c5-6,4.8-16.5,6.3-25.1c2.6-13.7,10.5-22.1,24.8-21c14.2,1.1,21.6,10.2,21,24.4c-1.4,36.1-15.7,65.4-49.5,81.4c-31.5,15-60.9,8.6-86.6-14.5c-1.4-1.2-3.1-2.1-4.8-3.3c-7.8,5.4-15.1,11.8-23.4,16.1c-27.2,14.2-54.5,13-79.6-4.4c-27.7-19.3-40.1-47.4-37.6-80.1C364.1,619.7,377.3,608.6,385,608.4z M586,478.2c6.7-11.7,18.6-14.9,29.7-8.6c44.1,25.1,87.6,51.1,130.9,77.4c5.2,3.1,7.6,10.7,9.4,13.4c0.5,21.4-17.2,33.1-33.5,23.9c-43.6-24.6-86.5-50.5-129.3-76.4C581.8,501,579.5,489.6,586,478.2z"/></g>
</svg>